<?xml version="1.0" encoding="utf-8" ?>
<svg baseProfile="full" height="200mm" version="1.1" viewBox="0,0,200,200" width="200mm" xmlns="http://www.w3.org/2000/svg" xmlns:ev="http://www.w3.org/2001/xml-events" xmlns:xlink="http://www.w3.org/1999/xlink"><defs /><rect fill="#1a1a1a" height="200" width="200" x="0" y="0" /><text alignment-baseline="middle" fill="#e1ed5e" style="dominant-baseline: central; font-size:9.0px; font-family:Arial;" text-anchor="middle" x="100.0" y="100.0">2023</text><line stroke="#e1ed5e" stroke-width="0.3" x1="100.0" x2="100.0" y1="15.0" y2="10.0" /><path d="M 100.0 14.0 a86.0,86.0 0 0,1 42.46469731375804,11.215312516191453" fill="none" id="id13" stroke="none" /><text fill="#e1ed5e" style="font-size:6.75px; font-family:Arial;" text-anchor="middle"><textPath startOffset="22.20632615414155" xlink:href="#id13">January</textPath></text><line stroke="#e1ed5e" stroke-width="0.3" x1="143.23703022742887" x2="145.7803849466894" y1="26.81831364943548" y2="22.513508569990506" /><path d="M 143.74570117128098 25.957352633546492 a86.0,86.0 0 0,1 28.547481713284135,27.462654790039103" fill="none" id="id14" stroke="none" /><text fill="#e1ed5e" style="font-size:6.75px; font-family:Arial;" text-anchor="middle"><textPath startOffset="19.985693538727396" xlink:href="#id14">February</textPath></text><line stroke="#e1ed5e" stroke-width="0.3" x1="172.23445277983987" x2="176.4835382374775" y1="55.19839476539836" y2="52.563006222186495" /><path d="M 173.08426987136738 54.67131705675599 a86.0,86.0 0 0,1 12.851231095245387,41.99856678651699" fill="none" id="id15" stroke="none" /><text fill="#e1ed5e" style="font-size:6.75px; font-family:Arial;" text-anchor="middle"><textPath startOffset="22.20632615414155" xlink:href="#id15">March</textPath></text><line stroke="#e1ed5e" stroke-width="0.3" x1="184.98032266829074" x2="189.97916517819016" y1="98.17113171792111" y2="98.06355123074" /><path d="M 185.9800911702706 98.14961562048488 a86.0,86.0 0 0,1 -9.607161424134198,41.387399972396054" fill="none" id="id16" stroke="none" /><text fill="#e1ed5e" style="font-size:6.75px; font-family:Arial;" text-anchor="middle"><textPath startOffset="21.466115282336823" xlink:href="#id16">April</textPath></text><line stroke="#e1ed5e" stroke-width="0.3" x1="174.80103733775053" x2="179.2010983576182" y1="140.37084112569926" y2="142.7455964860345" /><path d="M 175.68104954172406 140.8457921977663 a86.0,86.0 0 0,1 -30.038265399797805,32.042727171017184" fill="none" id="id17" stroke="none" /><text fill="#e1ed5e" style="font-size:6.75px; font-family:Arial;" text-anchor="middle"><textPath startOffset="22.206326154141568" xlink:href="#id17">May</textPath></text><line stroke="#e1ed5e" stroke-width="0.3" x1="143.8653032363475" x2="146.44561519142675" y1="172.8068346515853" y2="177.08958963109032" /><path d="M 144.38136562736335 173.6633856474863 a86.0,86.0 0 0,1 -40.68145358897372,12.25698825130547" fill="none" id="id18" stroke="none" /><text fill="#e1ed5e" style="font-size:6.75px; font-family:Arial;" text-anchor="middle"><textPath startOffset="21.466115282336833" xlink:href="#id18">June</textPath></text><line stroke="#e1ed5e" stroke-width="0.3" x1="102.19456741930631" x2="102.32365962044197" y1="184.97166512339345" y2="189.96999836594603" /><path d="M 102.22038585953345 185.97133177190398 a86.0,86.0 0 0,1 -42.740103519485714,-10.115201625700543" fill="none" id="id19" stroke="none" /><text fill="#e1ed5e" style="font-size:6.75px; font-family:Arial;" text-anchor="middle"><textPath startOffset="22.20632615414155" xlink:href="#id19">July</textPath></text><line stroke="#e1ed5e" stroke-width="0.3" x1="58.666819895761336" x2="56.23545636021788" y1="174.27360380694188" y2="178.64263932499728" /><path d="M 58.180547188652646 175.14741091055294 a86.0,86.0 0 0,1 -31.652253787137756,-30.449443065178592" fill="none" id="id20" stroke="none" /><text fill="#e1ed5e" style="font-size:6.75px; font-family:Arial;" text-anchor="middle"><textPath startOffset="22.20632615414155" xlink:href="#id20">August</textPath></text><path d="M 85.44109423537348 115.13401014063109 l -3.4444738203888767 3.5805370657429236 a25.968364477220174,25.968364477220174 0 0,0 -0.3194727714005983,-0.3126713469206818 l 3.5055965441652694 -3.520715615899672" fill="#ff3a05" stroke="none" /><path d="M 85.18274418774928 114.88116024355367 l -3.3327614113726254 3.3471350730925 a25.723411036810198,25.723411036810198 0 0,0 -0.3110810184927579,-0.3151234293553386 l 3.3898830549209165 -3.2892711497564964" fill="#ff3705" stroke="none" /><path d="M 84.67929136418377 114.36230785411682 l -3.0304793096779608 2.8409049363014316 a25.153859133804136,25.153859133804136 0 0,0 -0.2934061022664174,-0.318434375601218 l 3.0789318199401072 -2.7883193058988693" fill="#ff2e04" stroke="none" /><path d="M 84.43433777217949 114.09645910891817 l -6.488015717470307 5.875628477654847 a29.753134179113808,29.753134179113808 0 0,0 -0.34051916643693125,-0.3825768933107942 l 6.588193733555577 -5.763077414603189" fill="#ff6e0a" stroke="none" /><path d="M 84.19399662182784 113.82643327865904 l -5.467801581091909 4.783005035056255 a28.264570964314732,28.264570964314732 0 0,0 -0.3171789457861449,-0.3689507706520351 l 5.549323036448833 -4.688177165242689" fill="#ff5a08" stroke="none" /><path d="M 83.72743513129214 113.27417163493432 l -6.137046740024324 5.0062305737279775 a28.919955002812323,28.919955002812323 0 0,0 -0.31134684811025143,-0.38845306478392955 l 6.222311500189436 -4.899849675365789" fill="#ff6309" stroke="none" /><path d="M 83.50135304334701 112.99209946851258 l -6.528194974170399 5.140722065094227 a29.309293169176925,29.309293169176925 0 0,0 -0.3087150400561414,-0.3990558044787528 l 6.615716831444608 -5.027588266502222" fill="#ff6809" stroke="none" /><path d="M 83.28015986056508 112.70617746262583 l -2.9335663878524465 2.2293523629172207 a24.684538466345852,24.684538466345852 0 0,0 -0.25417873000852736,-0.3405139461408311 l 2.9715063845560588 -2.178525537267082" fill="#ff2803" stroke="none" /><path d="M 83.06392112726016 112.41649034213515 l -2.6699420563998517 1.9574371379853022 a24.310611836760202,24.310611836760202 0 0,0 -0.24451868950650021,-0.33961507351558207 l 2.7032405382819595 -1.911188459018582" fill="#ff2203" stroke="none" /><path d="M 82.85270091963577 112.12312394758628 l -4.653134017500073 3.289761272285762 a26.69861258671333,26.69861258671333 0 0,0 -0.2620775132692724,-0.3775422045289681 l 4.7090724379314794 -3.209177805569781" fill="#ff4406" stroke="none" /><path d="M 82.6465618267979 111.8261652097733 l -3.7976090760617027 2.5880261817507666 a25.59561902381101,25.59561902381101 0 0,0 -0.24498285423219265,-0.3662161273669739 l 3.841595035704626 -2.5222731401779717" fill="#ff3505" stroke="none" /><path d="M 82.24976979558568 111.22182372390057 l -4.975443074761144 3.1455110435348654 a26.88636335229048,26.88636335229048 0 0,0 -0.24394299663556818,-0.39331378371762615 l 5.028850711064668 -3.059400928451975" fill="#ff4706" stroke="none" /><path d="M 82.05923443525364 110.91462005526583 l -6.586236085068337 4.0068671653599335 a28.709311918005124,28.709311918005124 0 0,0 -0.25321493394091543,-0.42440279418076315 l 6.654231894707484 -3.892902277293059" fill="#ff6008" stroke="none" /><line stroke="#e1ed5e" stroke-width="0.3" x1="26.63291911575756" x2="22.317208475507996" y1="142.92168965132927" y2="145.44649492493687" /><path d="M 25.769776987707644 143.4266507060508 a86.0,86.0 0 0,1 -11.730757126820373,-40.83630448921669" fill="none" id="id21" stroke="none" /><text fill="#e1ed5e" style="font-size:6.75px; font-family:Arial;" text-anchor="middle"><textPath startOffset="21.46611528233685" xlink:href="#id21">September</textPath></text><path d="M 81.87401531095188 110.60418214915194 l -1.948502492241413 1.1399256757779772 a23.2574526592088,23.2574526592088 0 0,0 -0.1991812588256804,-0.34728931380084876 l 1.9678357472194705 -1.1062165161188213" fill="#ff1302" stroke="none" /><path d="M 81.69416730710424 110.29060199501025 l -0.8151306664388626 0.4582247310446103 a21.935097806387102,21.935097806387102 0 0,0 -0.18219040563915243,-0.3307285070156861 l 0.8228974815295316 -0.44412570563110165" fill="#ff0000" stroke="none" /><path d="M 81.51974371655577 109.97397251340807 l -7.839478256970142 4.231042008033651 a29.908374476595213,29.908374476595213 0 0,0 -0.24061642147102844,-0.4551555907571986 l 7.9111471866660565 -4.095471402190325" fill="#ff700a" stroke="none" /><path d="M 81.02952815118164 109.00673069616217 l -5.084920426604626 2.4141997763062806 a26.628923192300483,26.628923192300483 0 0,0 -0.19302847790908412,-0.41576616879660777 l 5.125723521353536 -2.3263135402308457" fill="#ff4306" stroke="none" /><path d="M 80.87730276802145 108.67885076344099 l -2.8916833063729337 1.3123926801066488 a24.175564027248296,24.175564027248296 0 0,0 -0.16872116380204766,-0.3804216832872162 l 2.913845554906261 -1.2624226603267368" fill="#ff2103" stroke="none" /><path d="M 80.73074385275274 108.34839909993369 l -0.8553466715339089 0.3705786735200501 a21.932172989188174,21.932172989188174 0 0,0 -0.14710119265941668,-0.34770376645701584 l 0.8615988453856321 -0.3558003813968755" fill="#ff0000" stroke="none" /><path d="M 80.58989483394504 108.01547362559985 l -1.5644260215618446 0.6460354237008858 a22.692569214424097,22.692569214424097 0 0,0 -0.14598603698342755,-0.3623253715651092 l 1.5753146728026601 -0.6190106842929712" fill="#ff0b01" stroke="none" /><path d="M 80.45479744820244 107.68017299344265 l -5.2404916695769765 2.0592205420426666 a26.630554340353726,26.630554340353726 0 0,0 -0.16397538160969724,-0.4280879784510656 l 5.275161330780183 -1.968708996758443" fill="#ff4306" stroke="none" /><path d="M 80.32549172779594 107.34259656027581 l -4.23161685414625 1.5792544813715257 a25.51670520592463,25.51670520592463 0 0,0 -0.15003304914349436,-0.41282651461230346 l 4.25817416429497 -1.506180169753105" fill="#ff3404" stroke="none" /><path d="M 80.0844068197444 106.66101706037122 l -5.542234319538666 1.8536689829365232 a26.844009749390665,26.844009749390665 0 0,0 -0.14279447156201375,-0.43947619432605145 l 5.5733210421169295 -1.7579938886326683" fill="#ff4606" stroke="none" /><path d="M 79.97269907076064 106.31721596034903 l -4.231861825357927 1.334857111280158 a25.437397662646084,25.437397662646084 0 0,0 -0.1281236023725282,-0.4187153457354445 l 4.254212200236585 -1.2618147929926657" fill="#ff3204" stroke="none" /><path d="M 79.86692584326677 105.97154293290107 l -7.885919892544215 2.338992487543064 a29.225485907130803,29.225485907130803 0 0,0 -0.13890088971966916,-0.48353221919897044 l 7.925013419149988 -2.2029027928394975" fill="#ff6709" stroke="none" /><path d="M 79.76711848015287 105.62410040840567 l -7.193098544703602 1.999453633101463 a28.465820886194614,28.465820886194614 0 0,0 -0.12716349599259041,-0.4732226745700788 l 7.226450117037968 -1.8753400253558452" fill="#ff5d08" stroke="none" /><path d="M 79.67330655649465 105.27499134158121 l -3.388266179229571 0.8792908107796119 a24.500499968751953,24.500499968751953 0 0,0 -0.10242222339860445,-0.4091258695183991 l 3.402899716923234 -0.820837101863821" fill="#ff2503" stroke="none" /><path d="M 79.4281124754447 104.21870165774334 l -6.4175318824872 1.3160509631871884 a27.5510843072308,27.5510843072308 0 0,0 -0.09127289437367195,-0.4653985220182672 l 6.439234709836539 -1.2053887141009663" fill="#ff5007" stroke="none" /><path d="M 79.1416061653843 102.43462659150553 l -7.262736789218638 0.8477187771185348 a28.312042997312666,28.312042997312666 0 0,0 -0.05233373090280659,-0.4845453518185891 l 7.276252821622497 -0.7225771034151637" fill="#ff5b08" stroke="none" /><path d="M 79.10278846688536 102.07522291339032 l -5.925332528524955 0.5884223267380224 a26.95447784513468,26.95447784513468 0 0,0 -0.04187622484943559,-0.46210065172399156 l 5.934583349651467 -0.4863402864654646" fill="#ff4806" stroke="none" /><path d="M 79.07016306316243 101.71520430193888 l -3.931274665083108 0.3221687411135996 a24.944453471658022,24.944453471658022 0 0,0 -0.03138658585517011,-0.42824502723520746 l 3.936237809602613 -0.2544505773816315" fill="#ff2b04" stroke="none" /><path d="M 79.0235259727143 100.99374915477108 l -11.917413460154455 0.5645810414887161 a32.930779326292104,32.930779326292104 0 0,0 -0.021950508291231335,-0.5664450841056092 l 11.925366101296886 -0.3593587103691101" fill="#ff990e" stroke="none" /><line stroke="#e1ed5e" stroke-width="0.3" x1="15.007084014347285" x2="10.007500721073583" y1="101.09737516637583" y2="101.16192664675087" /><path d="M 14.007167355692545 101.11028546245083 a86.0,86.0 0 0,1 10.666146001902534,-42.60595125391555" fill="none" id="id22" stroke="none" /><text fill="#e1ed5e" style="font-size:6.75px; font-family:Arial;" text-anchor="middle"><textPath startOffset="22.20632615414155" xlink:href="#id22">October</textPath></text><path d="M 79.00019446554 99.90962569577889 l -2.819047702519848 -0.012131992092179637 a23.81907380788701,23.81907380788701 0 0,0 0.005293497520191267,-0.4099872165777448 l 2.818421197881941 0.06065546673039641" fill="#ff1b02" stroke="none" /><path d="M 79.03285615573316 98.82574320788736 l -6.180297161441904 -0.3461251552906211 a27.18998187613274,27.18998187613274 0 0,0 0.03019306228343488,-0.46707330975903694 l 6.173423508154055 0.4524575293026698" fill="#ff4b07" stroke="none" /><path d="M 79.08570108090925 98.10471618934814 l -12.890450751375566 -1.1681511637373725 a33.943272295481535,33.943272295481535 0 0,0 0.057740535721208394,-0.5814393148879575 l 12.868433089972129 1.3898660093297603" fill="#ffa60f" stroke="none" /><path d="M 79.16333360222342 97.38593545837743 l -6.149483327930054 -0.7714835957903706 a27.197687644522215,27.197687644522215 0 0,0 0.06227493515828317,-0.46402060101366416 l 6.135292393713937 0.8772225388686943" fill="#ff4b07" stroke="none" /><path d="M 79.21141760316559 97.0276538004421 l -6.4939287089924775 -0.9285002675946291 a27.559971251796764,27.559971251796764 0 0,0 0.07118885797105862,-0.469045627992409 l 6.476983957582116 1.0401450079791301" fill="#ff5007" stroke="none" /><path d="M 79.26566170972629 96.67025291283419 l -5.5597689677989015 -0.8928485812603607 a26.631004312230484,26.631004312230484 0 0,0 0.07658079886964345,-0.451984209919115 l 5.543576307409035 0.9884185794953037" fill="#ff4306" stroke="none" /><path d="M 79.3925641242962 95.95851677861259 l -8.31739566155423 -1.631188626016473 a29.475839010061872,29.475839010061872 0 0,0 0.10193124678128393,-0.4970529594510164 l 8.28808511885795 1.774117241630892" fill="#ff6b09" stroke="none" /><path d="M 79.46518482838121 95.60439243477599 l -61.60444551485639 -13.186822695672024 a84.0,84.0 0 0,0 0.31482245199184966,-1.4112873218001631 l 61.3683286758625 14.245288187022146" fill="#4dd2ff" stroke="none" /><path d="M 79.54389044137918 95.25157060432595 l -56.62041536860115 -13.1431660532066 a79.12584838447597,79.12584838447597 0 0,0 0.3193941235494934,-1.3240948418944913 l 56.38578844479085 14.11584612676049" fill="#47ffff" stroke="none" /><path d="M 79.62865764111835 94.90015583598534 l -3.187170144391031 -0.7978890528786272 a24.285525904630962,24.285525904630962 0 0,0 0.1050102302190078,-0.4046472534026684 l 3.1729635823017164 0.8526327318301594" fill="#ff2203" stroke="none" /><path d="M 79.81627453868168 94.20196356495316 l -1.3721552750966837 -0.39416936654233803 a22.427648271983,22.427648271983 0 0,0 0.10978238019107944,-0.3701316102597175 l 1.3651669977938974 0.4177303635485948" fill="#ff0701" stroke="none" /><path d="M 79.91906864156998 93.8553929516997 l -9.46107737427837 -2.8950152600417303 a30.894094119117554,30.894094119117554 0 0,0 0.15997920568585794,-0.5071778002844031 l 9.409842684824309 3.0574432267525475" fill="#ff7e0b" stroke="none" /><path d="M 80.02781315780177 93.51064311812611 l -8.170235823572085 -2.6546705419462495 a29.590694331604276,29.590694331604276 0 0,0 0.16156900434447719,-0.4830707580989487 l 8.123329525455837 2.7949144029675206" fill="#ff6c0a" stroke="none" /><path d="M 80.14247586403 93.16781622104843 l -19.08772085982837 -6.5673251077382915 a41.185907130804324,41.185907130804324 0 0,0 0.23642067707960748,-0.6683930908548228 l 18.971847101938952 6.8949158250197256" fill="#fdff18" stroke="none" /><path d="M 80.2630227832202 92.82701384747504 l -2.4556727775524902 -0.8924622364939029 a23.612817948878195,23.612817948878195 0 0,0 0.14212151625164826,-0.38081500518206324 l 2.439946672799214 0.9346003787053075" fill="#ff1802" stroke="none" /><path d="M 80.38941819471856 92.48833698450439 l -2.631242946071872 -1.0078747545097708 a23.81766764577214,23.81766764577214 0 0,0 0.14994520426405877,-0.3815941895467627 l 2.613504191926122 1.053017948952297" fill="#ff1b02" stroke="none" /><path d="M 80.65960295795068 91.81776055985345 l -4.964490517518231 -2.1003007344862135 a26.390494344103494,26.390494344103494 0 0,0 0.18059805757580294,-0.4168452166057925 l 4.927601750099747 2.185445095678605" fill="#ff4006" stroke="none" /><path d="M 80.803312248108 91.48605970444005 l -3.607226394625749 -1.5998442311166237 a24.946084619711268,24.946084619711268 0 0,0 0.17747082109623966,-0.39103342963677457 l 3.579153256566158 1.6616996695954693" fill="#ff2c04" stroke="none" /><path d="M 81.26839172434947 90.50648371742162 l -21.174893521979758 -10.731817229708588 a44.73916630210611,44.73916630210611 0 0,0 0.35405844798528285,-0.6839282269670123 l 20.98702564083436 11.094718178935935" fill="#d3ff1c" stroke="none" /><line stroke="#e1ed5e" stroke-width="0.3" x1="26.266209847984243" x2="21.928928074336255" y1="57.711370442889674" y2="55.22380399835377" /><path d="M 25.398753493254645 57.213857153982495 a86.0,86.0 0 0,1 29.58750427330803,-30.492523968695096" fill="none" id="id23" stroke="none" /><text fill="#e1ed5e" style="font-size:6.75px; font-family:Arial;" text-anchor="middle"><textPath startOffset="21.46611528233685" xlink:href="#id23">November</textPath></text><path d="M 81.96595687620814 89.24020034530311 l -0.7952515985343133 -0.4744775099277628 a21.926042122367353,21.926042122367353 0 0,0 0.1961693771858939,-0.3224508768288663 l 0.7869664230622024 0.48809615996370354" fill="#ff0000" stroke="none" /><path d="M 82.54541684631803 88.32363383020206 l -10.465690577908624 -7.001097323924776 a33.591506780826194,33.591506780826194 0 0,0 0.3256385210428011,-0.4778343479473159 l 10.343627591197082 7.180209695142508" fill="#ffa20e" stroke="none" /><line stroke="#e1ed5e" stroke-width="0.3" x1="56.762969772571076" x2="54.21961505331055" y1="26.818313649435495" y2="22.513508569990535" /><path d="M 56.25429882871897 25.957352633546506 a86.0,86.0 0 0,1 42.265352541879196,-11.944610805530505" fill="none" id="id24" stroke="none" /><text fill="#e1ed5e" style="font-size:6.75px; font-family:Arial;" text-anchor="middle"><textPath startOffset="22.20632615414155" xlink:href="#id24">December</textPath></text></svg>