<?xml version="1.0" encoding="utf-8" ?>
<svg baseProfile="full" height="200mm" version="1.1" viewBox="0,0,200,200" width="200mm" xmlns="http://www.w3.org/2000/svg" xmlns:ev="http://www.w3.org/2001/xml-events" xmlns:xlink="http://www.w3.org/1999/xlink"><defs /><rect fill="#1a1a1a" height="200" width="200" x="0" y="0" /><text alignment-baseline="middle" fill="#e1ed5e" style="dominant-baseline: central; font-size:9.0px; font-family:Arial;" text-anchor="middle" x="100.0" y="100.0">2024</text><line stroke="#e1ed5e" stroke-width="0.3" x1="100.0" x2="100.0" y1="15.0" y2="10.0" /><path d="M 100.0 14.0 a86.0,86.0 0 0,1 42.35913384403234,11.155469271406648" fill="none" id="id25" stroke="none" /><text fill="#e1ed5e" style="font-size:6.75px; font-family:Arial;" text-anchor="middle"><textPath startOffset="22.145653131862478" xlink:href="#id25">January</textPath></text><path d="M 101.44090949804482 79.04949213459386 l 0.5796915054462769 -8.42858726439155 a29.44849841776336,29.44849841776336 0 0,0 0.5040334946979348,0.039015380220228865 l -0.7242939949194452 8.417394117176269" fill="#ff6d0a" stroke="none" /><path d="M 102.15924093988457 79.11130261209362 l 0.5141889123162846 -4.974311292081089 a26.00081624018264,26.00081624018264 0 0,0 0.4435789994253523,0.0497039521028635 l -0.5995038133424336 4.964751579471255" fill="#ff3e05" stroke="none" /><path d="M 102.87502721639298 79.19773525538626 l 0.9665288680868334 -6.993321413659244 a28.059796204395006,28.059796204395006 0 0,0 0.4765821356129788,0.07004116192792759 l -1.0864361093074941 6.975699178432434" fill="#ff5a08" stroke="none" /><path d="M 103.58742460773223 79.30868818359171 l 1.1387346519883619 -6.567918865710998 a27.66590390226273,27.66590390226273 0 0,0 0.4672445323355693,0.08514751852583756 l -1.2513139178749848 6.5474031732537945" fill="#ff5507" stroke="none" /><path d="M 104.29559338865022 79.4440306129975 l 0.8670891168629504 -4.149335313982909 a25.23896533182896,25.23896533182896 0 0,0 0.42333867407223275,0.09226469365419677 l -0.9381902075543173 4.133839162194993" fill="#ff3304" stroke="none" /><path d="M 104.64783097203109 79.52079915486377 l 13.943492916093248 -61.4376025354087 a84.0,84.0 0 0,0 1.40347138504046,0.3312154254150901 l -14.996096454873593 61.18919096634738" fill="#4dd2ff" stroke="none" /><path d="M 105.69591212413111 79.78721728523813 l 1.5509658380259872 -5.503830606730094 a26.71818558445794,26.71818558445794 0 0,0 0.44039202035191743,0.12819169878236936 l -1.645217870759509 5.476395213645209" fill="#ff4806" stroke="none" /><path d="M 106.38641147887787 79.99465700312896 l 2.208951797617218 -6.919510044262265 a28.263545091540543,28.263545091540543 0 0,0 0.4609343593962092,0.15151827925324052 l -2.3274088946611693 6.8805708436070026" fill="#ff5d08" stroke="none" /><path d="M 106.72888874123014 80.10723608172694 l 2.135608251871885 -6.3135463239412575 a27.664959849092526,27.664959849092526 0 0,0 0.44855995929630127,0.1560324384501681 l -2.2436739832132044 6.275955452922499" fill="#ff5507" stroke="none" /><path d="M 107.40779381753099 80.34994680014964 l 1.259939397487703 -3.3421389416414065 a24.571741870653256,24.571741870653256 0 0,0 0.3934143417029925,0.15218111887335295 l -1.3171260016842212 3.3200179346300156" fill="#ff2a04" stroke="none" /><path d="M 108.07796709384702 80.6158196554323 l 2.8891547438272602 -6.932919625331103 a28.51083148959426,28.51083148959426 0 0,0 0.4501519856988504,0.1921431150031711 l -3.0077418046965407 6.882301860668531" fill="#ff6108" stroke="none" /><path d="M 108.4095320186766 80.7573450057729 l 2.2104348204688082 -5.057907448719275 a26.5198233536365,26.5198233536365 0 0,0 0.4155865916341899,0.18588659638993268 l -2.2969348149586297 5.01921710141949" fill="#ff4506" stroke="none" /><path d="M 109.06512990194946 81.05736502329252 l 4.875618673814906 -10.188167828001339 a32.294707660846036,32.294707660846036 0 0,0 0.49801476566870445,0.2436039777267221 l -5.049793688745678 10.102970100177396" fill="#ff930d" stroke="none" /><line stroke="#e1ed5e" stroke-width="0.3" x1="143.13028292997686" x2="145.6673583964461" y1="26.7553504044142" y2="22.446841604673864" /><path d="M 143.63769802327073 25.89364864446614 a86.0,86.0 0 0,1 29.32050498858742,28.57503671076993" fill="none" id="id26" stroke="none" /><text fill="#e1ed5e" style="font-size:6.75px; font-family:Arial;" text-anchor="middle"><textPath startOffset="20.669276256404974" xlink:href="#id26">February</textPath></text><path d="M 110.65571695917076 81.90426304109057 l 2.81817118188461 -4.785870777908825 a26.55397586538207,26.55397586538207 0 0,0 0.3908078153882884,0.23466886432009343 l -2.8999117538303327 4.736787913052812" fill="#ff4606" stroke="none" /><path d="M 110.96478420261332 82.08984904055464 l 4.349650165634428 -7.104826656663421 a29.330547304027434,29.330547304027434 0 0,0 0.42715873751437033,0.2665786447325979 l -4.470973031938511 7.0291122150892775" fill="#ff6c09" stroke="none" /><path d="M 111.8722381534696 82.67804972795209 l 4.3422459624486685 -6.3354666288053805 a28.680705527691345,28.680705527691345 0 0,0 0.40372177821835314,0.28182915580979373 l -4.450362831840782 6.25999265719046" fill="#ff6309" stroke="none" /><path d="M 113.03279911837588 83.53348406188908 l 3.832674793576765 -4.842459398076913 a27.175662644230343,27.175662644230343 0 0,0 0.3633117310691914,0.29265821306130624 l -3.9152372950012158 4.7759528912221985" fill="#ff4e07" stroke="none" /><path d="M 115.16444852881244 85.47280134310134 l 3.374656892188464 -3.2328449648892876 a25.673285322661684,25.673285322661684 0 0,0 0.3021429855390636,0.3208653802006769 l -3.4296557114637873 3.174438124744116" fill="#ff3905" stroke="none" /><path d="M 115.8921839302757 86.27271002978787 l 5.81253261715982 -5.020727235925249 a28.680705527691345,28.680705527691345 0 0,0 0.31863640581247665,0.3753528848472539 l -5.897863586479409 4.9202075686284426" fill="#ff6309" stroke="none" /><path d="M 116.1254893667686 86.54754324733833 l 5.9706114375280235 -4.9808964133401785 a28.77544403994817,28.77544403994817 0 0,0 0.31317710776909674,0.38202514959286593 l -6.055235364535748 4.877668982048817" fill="#ff6409" stroke="none" /><path d="M 116.57777611688842 87.10902102172516 l 3.3727058597040305 -2.622636476134872 a25.272395920562026,25.272395920562026 0 0,0 0.2633720892730516,0.34476251921607 l -3.417229926331389 2.56435304367792" fill="#ff3404" stroke="none" /><path d="M 117.01052211995028 87.68569379921539 l 4.084072714962563 -2.9565536909260794 a26.041910319356177,26.041910319356177 0 0,0 0.2590362795785865,0.36436696722931516 l -4.1342240930711105 2.8860094969872603" fill="#ff3e05" stroke="none" /><path d="M 117.62189284568427 88.57770195909679 l 7.4623427940505795 -4.837000441635722 a29.89286979823177,29.89286979823177 0 0,0 0.2754162596423143,0.43300010558252533 l -7.5442767453187844 4.708186661374525" fill="#ff730a" stroke="none" /><line stroke="#e1ed5e" stroke-width="0.3" x1="172.87174338648825" x2="177.1583165268699" y1="56.24261187166439" y2="53.66864786411523" /><path d="M 173.72905801456457 55.72781907015455 a86.0,86.0 0 0,1 12.242430191666344,42.057860355516425" fill="none" id="id27" stroke="none" /><text fill="#e1ed5e" style="font-size:6.75px; font-family:Arial;" text-anchor="middle"><textPath startOffset="22.145653131862474" xlink:href="#id27">March</textPath></text><path d="M 118.18653347947321 89.5 l 4.854417929653176 -2.8026994984442077 a26.605398996888415,26.605398996888415 0 0,0 0.22496338914957784,0.39748875305168835 l -4.9018146838241305 2.7189539752934015" fill="#ff4606" stroke="none" /><path d="M 118.36410011445183 89.81374322990088 l 10.980824403764935 -6.0908781931599165 a33.55696228194664,33.55696228194664 0 0,0 0.2750946242676049,0.5061431240991259 l -11.083764377647881 5.901480235586187" fill="#ffa40f" stroke="none" /><path d="M 118.70294669586156 90.45014215332178 l 7.918405620723829 -4.043194330815419 a29.89092615935194,29.89092615935194 0 0,0 0.22942009869266225,0.45899387981679124 l -7.986645632628228 3.9066685948348776" fill="#ff730a" stroke="none" /><path d="M 118.8641267826498 90.77261029715802 l 8.482696326062177 -4.149311846410665 a30.443141731381175,30.443141731381175 0 0,0 0.22559925267948136,0.47141567090025127 l -8.552674836701572 4.00308367344531" fill="#ff7b0b" stroke="none" /><path d="M 119.71291397450082 92.76114493625339 l 5.280715836992364 -1.9391520008795178 a26.625501776159794,26.625501776159794 0 0,0 0.15386982704997332,0.4304012915154315 l -5.31322583408628 1.8482157529831695" fill="#ff4706" stroke="none" /><path d="M 119.83427380445688 93.10060997987247 l 5.250653120884385 -1.8264497152016175 a26.559251456627322,26.559251456627322 0 0,0 0.14609432073170744,0.4319018999837102 l -5.281232863188458 1.7360461407437455" fill="#ff4606" stroke="none" /><path d="M 120.05942366710727 93.78553927170692 l 3.1924767177127205 -0.9890374478080258 a24.342170352675698,24.342170352675698 0 0,0 0.12023140419419638,0.4002112414175074 l -3.2089844419105438 0.934088602799795" fill="#ff2603" stroke="none" /><path d="M 120.16314734710363 94.1308016681162 l 38.59493746513047 -11.234423807453963 a61.1967844015267,61.1967844015267 0 0,0 0.2849482789984751,1.01118091761645 l -38.78210423620353 10.5702349659345" fill="#31ff3e" stroke="none" /><path d="M 120.26092885502905 94.47779374421319 l 5.310718297635025 -1.447459887735713 a26.504440840216137,26.504440840216137 0 0,0 0.11587554640574069,0.43999832369510233 l -5.334783324845495 1.3560810596678121" fill="#ff4506" stroke="none" /><path d="M 120.43855184770803 95.1765574152323 l 10.81454084192159 -2.552202192225461 a32.11161687836611,32.11161687836611 0 0,0 0.12200753546262522,0.5375877131494089 l -10.85675923894188 2.366180145137026" fill="#ff910d" stroke="none" /><path d="M 120.51834098615036 95.52812308129327 l 8.141972581997987 -1.77450502878162 a29.33310180084092,29.33310180084092 0 0,0 0.10300428930551896,0.4929128122993923 l -8.171234582127873 1.6344757651968234" fill="#ff6c09" stroke="none" /><path d="M 120.82617615685814 97.30363454192243 l 1.8354138217307043 -0.23763106548789614 a22.850732941373504,22.850732941373504 0 0,0 0.04702671453160678,0.38944865745962076 l -1.8392226225219748 0.20608873110486242" fill="#ff1101" stroke="none" /><path d="M 120.9064616781168 98.02013634271609 l 3.8844477432488547 -0.36786123993075825 a24.901827284987704,24.901827284987704 0 0,0 0.036648822361215375,0.4259148686978117 l -3.8901901883078107 0.3011253238572846" fill="#ff2e04" stroke="none" /><path d="M 120.93736805541906 98.37931529534042 l 5.536137840210896 -0.4285320818150619 a26.552698616975327,26.552698616975327 0 0,0 0.031276599245799896,0.45475488876396636 l -5.542678400621762 0.3334337688967614" fill="#ff4606" stroke="none" /><path d="M 120.96210409425399 98.7389718711861 l 8.051933557746928 -0.4843843281191807 a29.06649007906776,29.06649007906776 0 0,0 0.025687040759228424,0.49832172838094363 l -8.059062187962729 0.3460908063615064" fill="#ff6809" stroke="none" /><line stroke="#e1ed5e" stroke-width="0.3" x1="184.99686870605535" x2="189.99668451229388" y1="99.2704041080226" y2="99.22748670261217" /><path d="M 185.99683186730306 99.26182062694052 a86.0,86.0 0 0,1 -10.086455211305974,41.156179273409016" fill="none" id="id28" stroke="none" /><text fill="#e1ed5e" style="font-size:6.75px; font-family:Arial;" text-anchor="middle"><textPath startOffset="21.40746469413373" xlink:href="#id28">April</textPath></text><path d="M 120.99922638620191 100.18025310272382 l 7.021886455600283 0.060274449987740016 a28.02214514266574,28.02214514266574 0 0,0 -0.008257950569877624,0.480984220849342 l -7.019817073431737 -0.18080558680615305" fill="#ff5a08" stroke="none" /><path d="M 120.96210409425399 101.26102812881392 l 3.174609380974182 0.19097661710888655 a24.18034853279505,24.18034853279505 0 0,0 -0.02848219239759313,0.41412482647902915 l -3.170863227411523 -0.2454448677422592" fill="#ff2403" stroke="none" /><path d="M 120.82617615685814 102.69636545807757 l 6.064019578628323 0.7851087403548705 a27.114632383403702,27.114632383403702 0 0,0 -0.06372646617669726,0.46109296395095506 l -6.049648595896415 -0.8890900125059107" fill="#ff4d07" stroke="none" /><path d="M 120.7213421655516 103.40968896794604 l 6.585944545611113 1.0837146687344805 a27.674511445873403,27.674511445873403 0 0,0 -0.08115903991463637,0.4681037750520554 l -6.566370688204243 -1.196611476707124" fill="#ff5507" stroke="none" /><path d="M 120.51834098615036 104.47187691870673 l 11.502981989155776 2.5070213858092236 a32.77300942290233,32.77300942290233 0 0,0 -0.12452048504837779,0.5486602326945491 l -11.458250642549734 -2.70411595244279" fill="#ff9a0e" stroke="none" /><path d="M 120.16314734710363 105.8691983318838 l 8.001559836977133 2.329137452561472 a29.33365712623516,29.33365712623516 0 0,0 -0.14488546975642208,0.48227660737390493 l -7.9603980472170806 -2.4661516635261007" fill="#ff6c09" stroke="none" /><path d="M 119.94978838288452 106.5578916946017 l 4.685466663444309 1.5402059574674931 a25.932122488915528,25.932122488915528 0 0,0 -0.14264467604956527,0.4217036384426485 l -4.658336565822379 -1.6204112703843023" fill="#ff3d05" stroke="none" /><path d="M 119.83427380445688 106.89939002012753 l 0.630185372272204 0.2192111852014565 a21.667223461175702,21.667223461175702 0 0,0 -0.12521574070800795,0.3502507122548729 l -0.6263294615202527 -0.22999685383725088" fill="#ff0000" stroke="none" /><path d="M 119.71291397450082 107.23885506374661 l 5.212739672379595 1.9141902116657195 a26.553087344751294,26.553087344751294 0 0,0 -0.16079704572606918,0.4265332676266509 l -5.179111942839085 -2.0033917594865294" fill="#ff4606" stroke="none" /><path d="M 119.31412917781788 108.2440532568976 l 4.087229774577229 1.7445953490614063 a25.443991467381245,25.443991467381245 0 0,0 -0.1749166797209181,0.40024359418932326 l -4.056679212839345 -1.8145010130265742" fill="#ff3605" stroke="none" /><line stroke="#e1ed5e" stroke-width="0.3" x1="174.33088141563837" x2="178.70328620479359" y1="141.23008692659167" y2="143.65538615756765" /><path d="M 175.20536237346943 141.71514677278685 a86.0,86.0 0 0,1 -30.301960400862466,31.631185727798858" fill="none" id="id29" stroke="none" /><text fill="#e1ed5e" style="font-size:6.75px; font-family:Arial;" text-anchor="middle"><textPath startOffset="22.145653131862474" xlink:href="#id29">May</textPath></text><path d="M 117.81537515405839 111.11811171558189 l 4.788277609566192 2.988239367850129 a26.64421624194558,26.64421624194558 0 0,0 -0.24548497444336126,0.3859431537954415 l -4.736274943496941 -3.069996196324243" fill="#ff4706" stroke="none" /><path d="M 117.423217284605 111.72311816256416 l 4.095432064296022 2.7555894661842166 a25.93617636429346,25.93617636429346 0 0,0 -0.25171709194337705,0.3672627598018184 l -4.047525235537324 -2.8254869610560793" fill="#ff3d05" stroke="none" /><path d="M 117.21940702142032 112.02048342749411 l 4.914604881103672 3.4307758944602478 a26.99362697999947,26.99362697999947 0 0,0 -0.2685029100969612,0.3776829685920286 l -4.854986872476751 -3.51463608976178" fill="#ff4c07" stroke="none" /><path d="M 116.79662413953412 112.60449989151573 l 4.443398289079603 3.3344089138032302 a26.555364178867663,26.555364178867663 0 0,0 -0.2767423305324535,0.36226459421513946 l -4.385503981192845 -3.4101944212592468" fill="#ff4606" stroke="none" /><path d="M 113.86319453409587 115.77377054828091 l 2.5566997364471002 2.909054973179528 a24.87289483194796,24.87289483194796 0 0,0 -0.32313505275503923,0.27911636236840653 l -2.5063852039292054 -2.952515468012652" fill="#ff2e04" stroke="none" /><path d="M 113.03279911837588 116.46651593811092 l 1.091268745628145 1.3787824111638327 a22.7583823283119,22.7583823283119 0 0,0 -0.30841948984889866,0.2398288607651118 l -1.0674393111440155 -1.3973123235497376" fill="#ff1001" stroke="none" /><path d="M 112.7482090630111 116.68781488649013 l 22.954361389373986 30.047995903590223 a58.81249482137033,58.81249482137033 0 0,0 -0.8075431950687223,0.6059954684989618 l -22.435165205394497 -30.437610399353197" fill="#3bff2e" stroke="none" /><path d="M 111.8722381534696 117.32195027204791 l 3.140601365436719 4.582231250181089 a26.555197581249395,26.555197581249395 0 0,0 -0.37822657937472254,0.25448772231923755 l -3.061478497964993 -4.635468646557448" fill="#ff4606" stroke="none" /><path d="M 111.27062007382361 117.71928675628689 l 1.4898474783386808 2.3422876930371075 a23.775960580711697,23.775960580711697 0 0,0 -0.3462638865744456,0.2160942747887767 l -1.4494194629745203 -2.367517764667432" fill="#ff1e03" stroke="none" /><line stroke="#e1ed5e" stroke-width="0.3" x1="143.1302829299769" x2="145.66735839644613" y1="173.24464959558577" y2="177.55315839532614" /><path d="M 143.63769802327073 174.10635135553383 a86.0,86.0 0 0,1 -40.68552437913181,11.842963189579606" fill="none" id="id30" stroke="none" /><text fill="#e1ed5e" style="font-size:6.75px; font-family:Arial;" text-anchor="middle"><textPath startOffset="21.407464694133747" xlink:href="#id30">June</textPath></text><path d="M 110.02825361518725 118.45085714620011 l 1.1215322623608364 2.0634930419326074 a23.348582157306936,23.348582157306936 0 0,0 -0.35379904657055156,0.1883780644882713 l -1.085944400003731 -2.082441574143447" fill="#ff1802" stroke="none" /><path d="M 109.3889696526874 118.78422872680471 l 1.045890186482118 2.0924809870247283 a23.339308223223178,23.339308223223178 0 0,0 -0.35991408368592037,0.17605201385551514 l -1.0098158535341282 -2.1101267509774666" fill="#ff1802" stroke="none" /><path d="M 109.06512990194946 118.94263497670748 l 1.5253792852720163 3.187456033666427 a24.5336465486086,24.5336465486086 0 0,0 -0.38145297561943226,0.178539253279759 l -1.4704375957810778 -3.21317151851672" fill="#ff2904" stroke="none" /><path d="M 108.07796709384702 119.3841803445677 l 1.6040724876228394 3.849190028209501 a25.170049450404154,25.170049450404154 0 0,0 -0.4002583678846887,0.16278159370925188 l -1.5377596585477098 -3.876158878498044" fill="#ff3204" stroke="none" /><path d="M 106.72888874123015 119.89276391827305 l 0.5380702882739737 1.5907091984574089 a22.679248459633133,22.679248459633133 0 0,0 -0.3698631868886665,0.1215813759466749 l -0.5106843637375731 -1.599711495806103" fill="#ff0f01" stroke="none" /><path d="M 106.0420521117495 120.11202640906438 l 1.2785789032901633 4.255973333801405 a25.443880402302398,25.443880402302398 0 0,0 -0.4193878308293728,0.1220776853306926 l -1.2053310600791838 -4.277294713434616" fill="#ff3605" stroke="none" /><path d="M 105.3480935250658 120.30758222061773 l 1.5659745075061124 5.946260273408446 a27.14900702530697,27.14900702530697 0 0,0 -0.45170092137279794,0.1148206078502507 l -1.463668292907917 -5.9722661130939665" fill="#ff4e07" stroke="none" /><path d="M 104.64783097203109 120.47920084513623 l 0.688614134891144 3.034160936165208 a24.111321586291396,24.111321586291396 0 0,0 -0.40442445941305455,0.0881424286023134 l -0.6364272588589537 -3.04553482290124" fill="#ff2303" stroke="none" /><path d="M 103.94208987418118 120.62667999033965 l 1.04231334521782 5.453823861875833 a26.55253201935706,26.55253201935706 0 0,0 -0.4484409925494932,0.0817208871979516 l -0.9485376191172695 -5.470912923005147" fill="#ff4606" stroke="none" /><path d="M 103.58742460773223 120.69131181640829 l 0.2952896923626396 1.7031524753656095 a22.728561354641375,22.728561354641375 0 0,0 -0.38500288557545126,0.06335207831065805 l -0.2660093037341161 -1.7079705521719384" fill="#ff0f01" stroke="none" /><path d="M 102.15924093988457 120.88869738790638 l 0.10563335492661191 1.0219068860602785 a22.02735197933837,22.02735197933837 0 0,0 -0.37645839251697566,0.03565100117367277 l -0.08807539902462097 -1.0235696427391348" fill="#ff0500" stroke="none" /><path d="M 101.08105385017728 120.97215588758144 l 0.15601892053719 3.026725377631788 a24.030743871587614,24.030743871587614 0 0,0 -0.41215499505454023,0.017699708881436394 l -0.10403816488182019 -3.028957654939055" fill="#ff2203" stroke="none" /><path d="M 100.72087961077811 120.9876233191556 l 0.057532098653864966 1.674984279281382 a22.675972039807135,22.675972039807135 0 0,0 -0.3891484958881223,0.010023084849331626 l -0.02877028869499883 -1.675725081480759" fill="#ff0f01" stroke="none" /><line stroke="#e1ed5e" stroke-width="0.3" x1="101.45913802915013" x2="101.54496967792366" y1="184.9874750549273" y2="189.98673829345242" /><path d="M 101.47630435890484 185.9873277026323 a86.0,86.0 0 0,1 -42.54439059252881,-10.42667462771756" fill="none" id="id31" stroke="none" /><text fill="#e1ed5e" style="font-size:6.75px; font-family:Arial;" text-anchor="middle"><textPath startOffset="22.145653131862474" xlink:href="#id31">July</textPath></text><path d="M 100.36049292484886 120.99690560180557 l 0.0381992789362922 2.2249164923795735 a23.22524438724691,23.22524438724691 0 0,0 -0.39869220378514414,0.0034222930617717326 l -2.725138416162542e-16 -2.22524438724691" fill="#ff1702" stroke="none" /><path d="M 99.63950707515114 120.99690560180557 l -0.0874662534242377 5.094470764613073 a26.095221557202922,26.095221557202922 0 0,0 -0.4478271626471449,-0.011534439157480614 l 0.1749067301421265 -5.0922186081055445" fill="#ff3f05" stroke="none" /><path d="M 99.27912038922189 120.98762331915562 l -0.20977484202011967 6.107365640986117 a27.110967235801738,27.110967235801738 0 0,0 -0.46498438112049867,-0.019968430029969828 l 0.3145849837414571 -6.102864642530319" fill="#ff4d07" stroke="none" /><path d="M 97.48249496171623 120.84855314841334 l -0.33476268438151574 2.772315253117222 a23.792453744920536,23.792453744920536 0 0,0 -0.40506332787840593,-0.052443557444202746 l 0.3823038341507157 -2.7661600994726223" fill="#ff1f03" stroke="none" /><path d="M 96.05791012581884 120.62667999033965 l -0.8338131480151659 4.362862726314423 a25.44182569834372,25.44182569834372 0 0,0 -0.4282749904225377,-0.08566699262515239 l 0.9085846239686618 -4.347906337026409" fill="#ff3605" stroke="none" /><path d="M 95.00130118170881 120.39639698878247 l -0.39696754663967176 1.619763055797315 a22.667697691433006,22.667697691433006 0 0,0 -0.37714159943590453,-0.09586791977585554 l 0.424714439300955 -1.6127099041861965" fill="#ff0e01" stroke="none" /><path d="M 94.30408787586889 120.21278271476187 l -0.28604828814170635 1.0150844620026327 a22.054618456195403,22.054618456195403 0 0,0 -0.3635231123502792,-0.10581627996256181 l 0.3034314128735923 -1.010024487737555" fill="#ff0600" stroke="none" /><path d="M 93.61358852112213 120.00534299687104 l -1.3360985069854936 4.185309543278683 a25.39340132396626,25.39340132396626 0 0,0 -0.4141267889163871,-0.13613170112003845 l 1.4077480335496242 -4.1617569207566225" fill="#ff3505" stroke="none" /><path d="M 92.93061703081489 119.77432235084164 l -0.35794020743868177 1.0012224652522266 a22.0632815323455,22.0632815323455 0 0,0 -0.355545420031193,-0.13056120305267485 l 0.3750747791239936 -0.9949304131908322" fill="#ff0600" stroke="none" /><path d="M 92.59220618246901 119.65005319985036 l -1.5907817197640457 4.21973750791184 a25.50963092898005,25.50963092898005 0 0,0 -0.4084307377083847,-0.15798978343716408 l 1.6629847199659586 -4.191807836336635" fill="#ff3705" stroke="none" /><path d="M 92.25597844496254 119.51999308798841 l -1.3779466774670832 3.473325768608858 a24.736673512741632,24.736673512741632 0 0,0 -0.39336675069374544,-0.15997883299370572 l 1.4373678893512694 -3.4491596790358607" fill="#ff2c04" stroke="none" /><path d="M 91.92203290615298 119.3841803445677 l -1.0612144717495202 2.546528410635218 a23.758801026029776,23.758801026029776 0 0,0 -0.3751230988683926,-0.16011774470863704 l 1.104772645788344 -2.527936016267177" fill="#ff1e03" stroke="none" /><path d="M 91.59046798132341 119.24265499422711 l -0.35630079773789375 0.8152859528700789 a21.88974234664645,21.88974234664645 0 0,0 -0.34302956291546594,-0.1534327603321937 l 0.3702437635089948 -0.8090494416280303" fill="#ff0300" stroke="none" /><line stroke="#e1ed5e" stroke-width="0.3" x1="58.13341422392154" x2="55.67067388415222" y1="173.97424548756322" y2="178.32567169271397" /><path d="M 57.64086615596768 174.84453072859336 a86.0,86.0 0 0,1 -31.369924170532247,-30.572349798747897" fill="none" id="id32" stroke="none" /><text fill="#e1ed5e" style="font-size:6.75px; font-family:Arial;" text-anchor="middle"><textPath startOffset="22.145653131862474" xlink:href="#id32">August</textPath></text><line stroke="#e1ed5e" stroke-width="0.3" x1="26.387840678322732" x2="22.057713659400548" y1="142.50000000000003" y2="145.00000000000006" /><path d="M 25.521815274538298 143.00000000000003 a86.0,86.0 0 0,1 -11.493303480769221,-40.785679425670985" fill="none" id="id33" stroke="none" /><text fill="#e1ed5e" style="font-size:6.75px; font-family:Arial;" text-anchor="middle"><textPath startOffset="21.40746469413373" xlink:href="#id33">September</textPath></text><line stroke="#e1ed5e" stroke-width="0.3" x1="15.003131293944662" x2="10.003315487706104" y1="100.72959589197737" y2="100.7725132973878" /><path d="M 14.003168132696942 100.73817937305945 a86.0,86.0 0 0,1 10.791469493833604,-42.45332614584628" fill="none" id="id34" stroke="none" /><text fill="#e1ed5e" style="font-size:6.75px; font-family:Arial;" text-anchor="middle"><textPath startOffset="22.145653131862435" xlink:href="#id34">October</textPath></text><line stroke="#e1ed5e" stroke-width="0.3" x1="26.387840678322718" x2="22.05771365940052" y1="57.49999999999999" y2="54.99999999999999" /><path d="M 25.521815274538284 56.99999999999999 a86.0,86.0 0 0,1 29.574782752854787,-30.34633250058573" fill="none" id="id35" stroke="none" /><text fill="#e1ed5e" style="font-size:6.75px; font-family:Arial;" text-anchor="middle"><textPath startOffset="21.40746469413373" xlink:href="#id35">November</textPath></text><line stroke="#e1ed5e" stroke-width="0.3" x1="56.869717070023135" x2="54.33264160355391" y1="26.7553504044142" y2="22.446841604673864" /><path d="M 56.362301976729285 25.89364864446614 a86.0,86.0 0 0,1 42.16139366436587,-11.88097634709845" fill="none" id="id36" stroke="none" /><text fill="#e1ed5e" style="font-size:6.75px; font-family:Arial;" text-anchor="middle"><textPath startOffset="22.145653131862474" xlink:href="#id36">December</textPath></text></svg>