<?xml version="1.0" encoding="utf-8" ?>
<svg baseProfile="full" height="200mm" version="1.1" viewBox="0,0,200,200" width="200mm" xmlns="http://www.w3.org/2000/svg" xmlns:ev="http://www.w3.org/2001/xml-events" xmlns:xlink="http://www.w3.org/1999/xlink"><defs /><rect fill="#1a1a1a" height="200" width="200" x="0" y="0" /><text alignment-baseline="middle" fill="#e1ed5e" style="dominant-baseline: central; font-size:9.0px; font-family:Arial;" text-anchor="middle" x="100.0" y="100.0">2022</text><line stroke="#e1ed5e" stroke-width="0.3" x1="100.0" x2="100.0" y1="15.0" y2="10.0" /><path d="M 100.0 14.0 a86.0,86.0 0 0,1 42.46469731375804,11.215312516191453" fill="none" id="id1" stroke="none" /><text fill="#e1ed5e" style="font-size:6.75px; font-family:Arial;" text-anchor="middle"><textPath startOffset="22.20632615414155" xlink:href="#id1">January</textPath></text><line stroke="#e1ed5e" stroke-width="0.3" x1="143.23703022742887" x2="145.7803849466894" y1="26.81831364943548" y2="22.513508569990506" /><path d="M 143.74570117128098 25.957352633546492 a86.0,86.0 0 0,1 28.547481713284135,27.462654790039103" fill="none" id="id2" stroke="none" /><text fill="#e1ed5e" style="font-size:6.75px; font-family:Arial;" text-anchor="middle"><textPath startOffset="19.985693538727396" xlink:href="#id2">February</textPath></text><line stroke="#e1ed5e" stroke-width="0.3" x1="172.23445277983987" x2="176.4835382374775" y1="55.19839476539836" y2="52.563006222186495" /><path d="M 173.08426987136738 54.67131705675599 a86.0,86.0 0 0,1 12.851231095245387,41.99856678651699" fill="none" id="id3" stroke="none" /><text fill="#e1ed5e" style="font-size:6.75px; font-family:Arial;" text-anchor="middle"><textPath startOffset="22.20632615414155" xlink:href="#id3">March</textPath></text><line stroke="#e1ed5e" stroke-width="0.3" x1="184.98032266829074" x2="189.97916517819016" y1="98.17113171792111" y2="98.06355123074" /><path d="M 185.9800911702706 98.14961562048488 a86.0,86.0 0 0,1 -9.607161424134198,41.387399972396054" fill="none" id="id4" stroke="none" /><text fill="#e1ed5e" style="font-size:6.75px; font-family:Arial;" text-anchor="middle"><textPath startOffset="21.466115282336823" xlink:href="#id4">April</textPath></text><line stroke="#e1ed5e" stroke-width="0.3" x1="174.80103733775053" x2="179.2010983576182" y1="140.37084112569926" y2="142.7455964860345" /><path d="M 175.68104954172406 140.8457921977663 a86.0,86.0 0 0,1 -30.038265399797805,32.042727171017184" fill="none" id="id5" stroke="none" /><text fill="#e1ed5e" style="font-size:6.75px; font-family:Arial;" text-anchor="middle"><textPath startOffset="22.206326154141568" xlink:href="#id5">May</textPath></text><line stroke="#e1ed5e" stroke-width="0.3" x1="143.8653032363475" x2="146.44561519142675" y1="172.8068346515853" y2="177.08958963109032" /><path d="M 144.38136562736335 173.6633856474863 a86.0,86.0 0 0,1 -40.68145358897372,12.25698825130547" fill="none" id="id6" stroke="none" /><text fill="#e1ed5e" style="font-size:6.75px; font-family:Arial;" text-anchor="middle"><textPath startOffset="21.466115282336833" xlink:href="#id6">June</textPath></text><line stroke="#e1ed5e" stroke-width="0.3" x1="102.19456741930631" x2="102.32365962044197" y1="184.97166512339345" y2="189.96999836594603" /><path d="M 102.22038585953345 185.97133177190398 a86.0,86.0 0 0,1 -42.740103519485714,-10.115201625700543" fill="none" id="id7" stroke="none" /><text fill="#e1ed5e" style="font-size:6.75px; font-family:Arial;" text-anchor="middle"><textPath startOffset="22.20632615414155" xlink:href="#id7">July</textPath></text><line stroke="#e1ed5e" stroke-width="0.3" x1="58.666819895761336" x2="56.23545636021788" y1="174.27360380694188" y2="178.64263932499728" /><path d="M 58.180547188652646 175.14741091055294 a86.0,86.0 0 0,1 -31.652253787137756,-30.449443065178592" fill="none" id="id8" stroke="none" /><text fill="#e1ed5e" style="font-size:6.75px; font-family:Arial;" text-anchor="middle"><textPath startOffset="22.20632615414155" xlink:href="#id8">August</textPath></text><path d="M 83.95833913139862 113.55231037782056 l -6.135392251375701 5.18329995636968 a29.031789122975212,29.031789122975212 0 0,0 -0.3192169637496332,-0.3845173966858432 l 6.223705215018871 -5.076921302570076" fill="#ff2f04" stroke="none" /><line stroke="#e1ed5e" stroke-width="0.3" x1="26.63291911575756" x2="22.317208475507996" y1="142.92168965132927" y2="145.44649492493687" /><path d="M 25.769776987707644 143.4266507060508 a86.0,86.0 0 0,1 -11.730757126820373,-40.83630448921669" fill="none" id="id9" stroke="none" /><text fill="#e1ed5e" style="font-size:6.75px; font-family:Arial;" text-anchor="middle"><textPath startOffset="21.46611528233685" xlink:href="#id9">September</textPath></text><line stroke="#e1ed5e" stroke-width="0.3" x1="15.007084014347285" x2="10.007500721073583" y1="101.09737516637583" y2="101.16192664675087" /><path d="M 14.007167355692545 101.11028546245083 a86.0,86.0 0 0,1 10.666146001902534,-42.60595125391555" fill="none" id="id10" stroke="none" /><text fill="#e1ed5e" style="font-size:6.75px; font-family:Arial;" text-anchor="middle"><textPath startOffset="22.20632615414155" xlink:href="#id10">October</textPath></text><path d="M 79.08570108090925 98.10471618934814 l -36.82517087003895 -3.3371498822159595 a57.976070355622426,57.976070355622426 0 0,0 0.09862247022629371,-0.9931148162151852 l 36.762271274130434 3.9705402291355747" fill="#56ff2a" stroke="none" /><path d="M 79.16333360222342 97.38593545837743 l -22.02317392949462 -2.762917875827846 a43.19580827808126,43.19580827808126 0 0,0 0.09890606123528034,-0.736965038368003 l 21.972351869201507 3.1416012562605085" fill="#fff717" stroke="none" /><path d="M 79.21141760316559 97.0276538004421 l -44.29693386145273 -6.333564285518875 a65.74742882093582,65.74742882093582 0 0,0 0.16982907309784454,-1.1189614008828672 l 44.18134889491559 7.095124798793834" fill="#35ff63" stroke="none" /><path d="M 79.32604984820605 96.31383870115002 l -22.322167363149536 -3.980038107683743 a43.674211323154616,43.674211323154616 0 0,0 0.13833135952225495,-0.738971653935675 l 22.250350279717416 4.363687839081991" fill="#fffd17" stroke="none" /><path d="M 79.3925641242962 95.95851677861259 l -4.882384036692442 -0.9575219975778929 a25.975391668762846,25.975391668762846 0 0,0 0.08982624913663532,-0.43802469193329835 l 4.865178491640812 1.0414223456745937" fill="#ff0000" stroke="none" /><path d="M 79.46518482838121 95.60439243477599 l -29.226448750174704 -6.256106916825603 a50.88852924286074,50.88852924286074 0 0,0 0.19072442326781386,-0.8549801922084074 l 29.114429939904852 6.75826527858397" fill="#a7ff21" stroke="none" /><path d="M 79.54389044137918 95.25157060432595 l -29.15171094982179 -6.766919233182849 a50.9268014864666,50.9268014864666 0 0,0 0.2055677311276738,-0.852210959366407 l 29.0309104184333 7.267715424208653" fill="#a7ff21" stroke="none" /><path d="M 79.62865764111835 94.90015583598534 l -28.997554558167746 -7.259364983363167 a50.89241626760196,50.89241626760196 0 0,0 0.22005800367054762,-0.8479732554518608 l 28.86830022262689 7.757434664363891" fill="#a7ff21" stroke="none" /><path d="M 79.81627453868168 94.20196356495316 l -60.423005066935836 -17.35729043503507 a83.8666451511858,83.8666451511858 0 0,0 0.4105236452650932,-1.384081649597945 l 60.11527552455904 18.39480147137955" fill="#4dd3ff" stroke="none" /><path d="M 80.14247586403 93.16781622104843 l -6.26936853917635 -2.1570402102667585 a27.630068200910294,27.630068200910294 0 0,0 0.15860569517307543,-0.4483996583268974 l 6.231309763193465 2.264637495020267" fill="#ff1a02" stroke="none" /><path d="M 80.38941819471856 92.48833698450439 l -12.404308902657714 -4.751362776589472 a34.28315954836474,34.28315954836474 0 0,0 0.21583118203470994,-0.5492668164459347 l 12.320684170741314 4.96417859793117" fill="#ff7d0b" stroke="none" /><path d="M 80.52162464483688 92.15188598940014 l -16.70953790179323 -6.732510084982623 a39.01486466604335,39.01486466604335 0 0,0 0.2563431053801844,-0.6207551626308411 l 16.591173109526846 7.019139818066775" fill="#ffbf11" stroke="none" /><path d="M 80.803312248108 91.48605970444005 l -27.334787428980626 -12.123276221921472 a50.90258233230976,50.90258233230976 0 0,0 0.3621298981442529,-0.7979052284238485 l 27.122055213873022 12.592003459187392" fill="#a7ff21" stroke="none" /><path d="M 80.95270993114464 91.15688171328213 l -40.69013399107152 -18.891278847787756 a65.86164754794709,65.86164754794709 0 0,0 0.4862527996376997,-1.0241724059615365 l 40.35892299759207 19.588893669389826" fill="#35ff65" stroke="none" /><path d="M 81.6062741919709 89.86733742301443 l -20.03012236177829 -11.034114207521707 a43.86826355831249,43.86826355831249 0 0,0 0.37004417519641825,-0.6582672970357728 l 19.83722054528944 11.377265014492265" fill="#feff18" stroke="none" /><line stroke="#e1ed5e" stroke-width="0.3" x1="26.266209847984243" x2="21.928928074336255" y1="57.711370442889674" y2="55.22380399835377" /><path d="M 25.398753493254645 57.213857153982495 a86.0,86.0 0 0,1 29.58750427330803,-30.492523968695096" fill="none" id="id11" stroke="none" /><text fill="#e1ed5e" style="font-size:6.75px; font-family:Arial;" text-anchor="middle"><textPath startOffset="21.46611528233685" xlink:href="#id11">November</textPath></text><path d="M 81.78341655067845 89.55222093294921 l -23.2310914016362 -13.323755858280759 a47.78070346130299,47.78070346130299 0 0,0 0.41532881732681515,-0.7099315796257235 l 22.998302909839058 13.721666850260373" fill="#cdff1d" stroke="none" /><path d="M 81.96595687620814 89.24020034530311 l -25.69466628983637 -15.330420337533406 a50.920522446500016,50.920522446500016 0 0,0 0.4555791290814013,-0.7488523017434167 l 25.426971362468752 15.770440412483897" fill="#a7ff21" stroke="none" /><path d="M 82.34701348167596 88.62581576622439 l -25.15350130024934 -16.206920999830473 a50.92261545982221,50.92261545982221 0 0,0 0.4811056306477864,-0.73275688223666 l 24.870799034243632 16.6374959460448" fill="#a7ff21" stroke="none" /><path d="M 82.54541684631803 88.32363383020206 l -44.75849148406941 -29.941507693097414 a74.84994375916585,74.84994375916585 0 0,0 0.7256008235922343,-1.0647296741826777 l 44.236466194808436 30.70751539055051" fill="#41ffce" stroke="none" /><path d="M 83.17141714833178 87.43820079747576 l -11.034929421085726 -8.237090955520634 a34.77023364863005,34.77023364863005 0 0,0 0.3621469839516505,-0.47654298048807275 l 10.891506496909967 8.425818711889733" fill="#ff840c" stroke="none" /><path d="M 83.39014120810768 87.1503855733568 l -30.70452233262725 -23.753439332133322 a59.82001509247702,59.82001509247702 0 0,0 0.6370715368685501,-0.8090161561955693 l 30.291096715164727 24.27844788228194" fill="#42ff2d" stroke="none" /><path d="M 83.6137871275137 86.86637796730984 l -18.711457549419336 -14.997315917177671 a44.97995263430169,44.97995263430169 0 0,0 0.4894279525366846,-0.5999807991974546 l 18.450531104806256 15.317180885983209" fill="#f0ff19" stroke="none" /><path d="M 84.07557802195018 86.31012108654704 l -47.77326593414944 -41.06963674035889 a84.0,84.0 0 0,0 0.9520325456886258,-1.0883377751882275 l 47.05924152488297 41.885890071750055" fill="#4dd2ff" stroke="none" /><path d="M 84.80347519578584 85.50635884689758 l -15.22039773177594 -14.516409888047557 a42.03298987664985,42.03298987664985 0 0,0 0.5038669359694201,-0.5192791686705792 l 14.968266532103401 14.77625325226826" fill="#ffe815" stroke="none" /><path d="M 85.05521093208273 85.24692304244772 l -25.51099560067492 -25.18373994106735 a56.84733817115249,56.84733817115249 0 0,0 0.6934406140586394,-0.6904627596871703 l 25.07371918644897 25.61913855140463" fill="#63ff29" stroke="none" /><path d="M 85.31137513191541 84.99185889309783 l -20.821288356370843 -21.274206162000095 a50.76773247397972,50.76773247397972 0 0,0 0.6298021425368202,-0.605869162128831 l 20.452002970221596 21.62945841089124" fill="#a8ff21" stroke="none" /><path d="M 86.37877921826538 84.01681056812374 l -9.616781890210675 -11.284366441103979 a35.82630837062948,35.82630837062948 0 0,0 0.4728091115951759,-0.39596403369883204 l 9.421115241656388 11.448231632196624" fill="#ff930d" stroke="none" /><path d="M 86.65592168130627 83.78471172551755 l -9.544992286337544 -11.598762972175491 a36.021257611496864,36.021257611496864 0 0,0 0.48216443304878037,-0.3898767725700538 l 9.343924454724265 11.761345842009678" fill="#ff950d" stroke="none" /><path d="M 86.93701828274178 83.55741782278169 l -13.090012723417308 -16.476606533197955 a42.043454943260826,42.043454943260826 0 0,0 0.5705245679738501,-0.445303474814332 l 12.804455600284033 16.69948839723551" fill="#ffe815" stroke="none" /><path d="M 87.51073957382395 83.11751280151077 l -17.81836165785201 -24.086155010128362 a50.96058870152491,50.96058870152491 0 0,0 0.7096982308156912,-0.5156259467377659 l 17.40111811068254 24.389300191682796" fill="#a6ff21" stroke="none" /><path d="M 87.80319425747018 82.90503203632743 l -14.588861801582985 -20.447659033780642 a46.11855188157626,46.11855188157626 0 0,0 0.6502031952204821,-0.4555088900007815 l 14.234727466778843 20.695752766545365" fill="#e2ff1b" stroke="none" /><path d="M 88.39885842347998 82.49532879139004 l -18.56416105526693 -28.01099645174806 a54.60422589356481,54.60422589356481 0 0,0 0.7879467132035041,-0.5125024604313048 l 18.07924731627914 28.3263978363389" fill="#7cff26" stroke="none" /><line stroke="#e1ed5e" stroke-width="0.3" x1="56.762969772571076" x2="54.21961505331055" y1="26.818313649435495" y2="22.513508569990535" /><path d="M 56.25429882871897 25.957352633546506 a86.0,86.0 0 0,1 42.265352541879196,-11.944610805530505" fill="none" id="id12" stroke="none" /><text fill="#e1ed5e" style="font-size:6.75px; font-family:Arial;" text-anchor="middle"><textPath startOffset="22.20632615414155" xlink:href="#id12">December</textPath></text></svg>